<svg xmlns="http://www.w3.org/2000/svg" width="49" height="38.062" viewBox="0 0 49 38.062">
  <defs>
    <style>
      .cls-1 {
        fill: #FAFAFA;
        fill-rule: evenodd;
      }
    </style>
  </defs>
  <path id="Shower_Icon" data-name="Shower Icon" class="cls-1" d="M471.04,114.987l-1.986,0c-0.019,0-.035.011-0.054,0.011a1,1,0,0,1,0-2h0v-0.011h2a12.5,12.5,0,1,0-12.5-15.979,1,1,0,0,1-1.355.64A7.951,7.951,0,0,0,453.988,97a8.037,8.037,0,0,0-7.676,5.76,1,1,0,0,1-1.353.641A4.938,4.938,0,0,0,443,103a5,5,0,1,0,0,10h2a1,1,0,0,1,0,2h-2a7,7,0,1,1,1.734-13.782A10.056,10.056,0,0,1,453.988,95a9.947,9.947,0,0,1,2.928.437A14.5,14.5,0,1,1,471.04,114.987Zm-17.406-7.549a1,1,0,0,1,1.732,1l-7,12.124a1,1,0,1,1-1.732-1Zm4.256,3a1,1,0,1,1,1.732,1l-7,12.124a1,1,0,1,1-1.732-1Zm7.744-3a1,1,0,0,1,1.732,1l-7,12.124a1,1,0,1,1-1.732-1Z" transform="translate(-436 -86)"/>
</svg>
