<svg xmlns="http://www.w3.org/2000/svg" width="40" height="40" viewBox="0 0 40 40">
  <defs>
    <style>
      .cls-1 {
        fill: #FAFAFA;
        fill-rule: evenodd;
      }
    </style>
  </defs>
  <path id="Sun_Icon" data-name="Sun Icon" class="cls-1" d="M119,581h-6a1,1,0,0,1,0-2h6A1,1,0,1,1,119,581Zm-9.1-9.484a1,1,0,0,1-1.414-1.415l4.243-4.242a1,1,0,0,1,1.414,1.414ZM100,590a10,10,0,1,1,10-10A10,10,0,0,1,100,590Zm0-18a8,8,0,1,0,8,8A8,8,0,0,0,100,572Zm0-4a1,1,0,0,1-1-1v-6a1,1,0,0,1,2,0v6A1,1,0,0,1,100,568Zm-9.895,3.511-4.243-4.242a1,1,0,0,1,1.414-1.414L91.52,570.1A1,1,0,1,1,90.105,571.511ZM88,580a1,1,0,0,1-1,1H81a1,1,0,0,1,0-2h6A1,1,0,0,1,88,580Zm2.1,8.486a1,1,0,1,1,1.414,1.414l-4.243,4.243a1,1,0,0,1-1.414-1.414ZM100,592a1,1,0,0,1,1,1v6a1,1,0,0,1-2,0v-6A1,1,0,0,1,100,592Zm9.9-3.518,4.243,4.243a1,1,0,0,1-1.414,1.414L108.49,589.9A1,1,0,0,1,109.9,588.482Z" transform="translate(-80 -560)"/>
</svg>
