<svg xmlns="http://www.w3.org/2000/svg" width="54" height="39" viewBox="0 0 54 39">
  <defs>
    <style>
      .cls-1 {
        fill: #FAFAFA;
        fill-rule: evenodd;
      }
    </style>
  </defs>
  <path id="Cloudy_Icon" data-name="Cloudy Icon" class="cls-1" d="M231.04,114.987C231,114.988,212.054,115,203,115a7,7,0,0,1-.6-13.968A9.882,9.882,0,0,1,201,96,9.982,9.982,0,0,1,219.61,90.96,14.49,14.49,0,1,1,231.04,114.987ZM211,88a7.955,7.955,0,0,0-6.17,13.031,9.982,9.982,0,0,1,12.086-5.592,14.287,14.287,0,0,1,1.366-2.714A7.983,7.983,0,0,0,211,88Zm19.5,0a12.559,12.559,0,0,0-12,9.009,1,1,0,0,1-1.355.64A7.949,7.949,0,0,0,213.988,97a8.037,8.037,0,0,0-7.676,5.76,1,1,0,0,1-1.353.641A4.938,4.938,0,0,0,203,103a5,5,0,1,0,0,10c9.053,0,28-.012,28-0.012A12.5,12.5,0,0,0,230.5,88Zm-9.6-.485a1,1,0,1,1-1.414-1.414l4.243-4.243a1,1,0,0,1,1.414,1.414ZM211,84a1,1,0,0,1-1-1V77a1,1,0,0,1,2,0v6A1,1,0,0,1,211,84Zm-9.9,3.512-4.242-4.243a1,1,0,1,1,1.414-1.414L202.52,86.1A1,1,0,0,1,201.105,87.512ZM199,96a1,1,0,0,1-1,1h-6a1,1,0,0,1,0-2h6A1,1,0,0,1,199,96Z" transform="translate(-191 -76)"/>
</svg>
