<svg xmlns="http://www.w3.org/2000/svg" width="54" height="48.062" viewBox="0 0 54 48.062">
  <defs>
    <style>
      .cls-1 {
        fill: #FAFAFA;
        fill-rule: evenodd;
      }
    </style>
  </defs>
  <path id="Rain_Icon" data-name="Rain Icon" class="cls-1" d="M231.04,234.987l-1.985,0c-0.019,0-.036.011-0.055,0.011a1,1,0,0,1,0-2h0v-0.011h2a12.5,12.5,0,1,0-12.5-15.979,1,1,0,0,1-1.355.639,7.953,7.953,0,0,0-3.157-.648,8.038,8.038,0,0,0-7.676,5.76,1,1,0,0,1-1.353.641A4.938,4.938,0,0,0,203,223a5,5,0,1,0,0,10h2a1,1,0,0,1,0,2h-2a6.981,6.981,0,0,1-.585-13.94A9.872,9.872,0,0,1,201,216a9.982,9.982,0,0,1,18.61-5.038A14.49,14.49,0,1,1,231.04,234.987ZM211,208a7.955,7.955,0,0,0-6.17,13.031,9.981,9.981,0,0,1,12.086-5.592,14.283,14.283,0,0,1,1.366-2.714A7.983,7.983,0,0,0,211,208Zm9.9-.483a1,1,0,1,1-1.414-1.415l4.243-4.242a1,1,0,0,1,1.414,1.414ZM211,204a1,1,0,0,1-1-1v-6a1,1,0,0,1,2,0v6A1,1,0,0,1,211,204Zm-9.9,3.511-4.242-4.242a1,1,0,0,1,1.414-1.414l4.243,4.242A1,1,0,1,1,201.105,207.511ZM199,216a1,1,0,0,1-1,1h-6a1,1,0,1,1,0-2h6A1,1,0,0,1,199,216Zm8.631,21.831a1,1,0,0,1,1.732,1l-1,1.732a1,1,0,1,1-1.732-1Zm3-5.2a1,1,0,0,1,1.732,1l-1,1.732a1,1,0,1,1-1.732-1Zm1.254,8.2a1,1,0,0,1,1.732,1l-1,1.732a1,1,0,1,1-1.732-1ZM213,230.536a1,1,0,0,1-.366-1.366l1-1.732a1,1,0,0,1,1.732,1l-1,1.732A1,1,0,0,1,213,230.536Zm1.888,5.1a1,1,0,0,1,1.732,1l-1,1.732a1,1,0,1,1-1.732-1Zm3-5.2a1,1,0,0,1,1.732,1l-1,1.732a1,1,0,0,1-1.732-1Zm1.746,7.392a1,1,0,0,1,1.732,1l-1,1.732a1,1,0,1,1-1.732-1Zm3-5.2a1,1,0,0,1,1.732,1l-1,1.732a1,1,0,1,1-1.732-1Zm3-5.2a1,1,0,0,1,1.732,1l-1,1.732a1,1,0,1,1-1.732-1Z" transform="translate(-191 -196)"/>
</svg>
