<svg xmlns="http://www.w3.org/2000/svg" width="49" height="29" viewBox="0 0 49 29">
  <defs>
    <style>
      .cls-1 {
        fill: #FAFAFA;
        fill-rule: evenodd;
      }
    </style>
  </defs>
  <path id="Cloudy_Icon" data-name="Cloudy Icon" class="cls-1" d="M83,115a7,7,0,1,1,1.735-13.782A10.055,10.055,0,0,1,93.988,95a9.945,9.945,0,0,1,2.927.437,14.5,14.5,0,1,1,14.124,19.55C111,114.988,92.054,115,83,115Zm0-12a5,5,0,1,0,0,10c9.054,0,28-.012,28-0.012A12.5,12.5,0,1,0,98.5,97.009a1,1,0,0,1-1.355.64A7.949,7.949,0,0,0,93.988,97a8.037,8.037,0,0,0-7.677,5.76,1,1,0,0,1-1.353.641A4.935,4.935,0,0,0,83,103Z" transform="translate(-76 -86)"/>
</svg>
