<svg xmlns="http://www.w3.org/2000/svg" width="49" height="38.062" viewBox="0 0 49 38.062">
  <defs>
    <style>
      .cls-1 {
        fill: #FAFAFA;
        fill-rule: evenodd;
      }
    </style>
  </defs>
  <path id="Rain_Icon" stroke-width="6" data-name="Rain Icon" class="cls-1" d="M111.04,234.987l-1.985,0c-0.019,0-.036.011-0.055,0.011a1,1,0,0,1,0-2h0v-0.011h2a12.5,12.5,0,1,0-12.5-15.979,1,1,0,0,1-1.355.639A7.951,7.951,0,0,0,93.988,217a8.038,8.038,0,0,0-7.676,5.76,1,1,0,0,1-1.353.641A4.934,4.934,0,0,0,83,223a5,5,0,1,0,0,10h2a1,1,0,1,1,0,2H83a7,7,0,1,1,1.734-13.782A10.056,10.056,0,0,1,93.988,215a9.917,9.917,0,0,1,2.928.437A14.5,14.5,0,1,1,111.04,234.987ZM87.634,237.83a1,1,0,0,1,1.732,1l-1,1.732a1,1,0,0,1-1.732-1Zm3-5.2a1,1,0,0,1,1.732,1l-1,1.732a1,1,0,1,1-1.732-1Zm1.254,8.2a1,1,0,0,1,1.732,1l-1,1.732a1,1,0,1,1-1.732-1ZM93,230.536a1,1,0,0,1-.366-1.366l1-1.732a1,1,0,0,1,1.732,1l-1,1.732A1,1,0,0,1,93,230.536Zm1.888,5.1a1,1,0,0,1,1.732,1l-1,1.732a1,1,0,0,1-1.732-1Zm3-5.2a1,1,0,0,1,1.732,1l-1,1.732a1,1,0,1,1-1.732-1Zm1.746,7.392a1,1,0,0,1,1.732,1l-1,1.732a1,1,0,0,1-1.732-1Zm3-5.2a1,1,0,0,1,1.732,1l-1,1.732a1,1,0,1,1-1.732-1Zm3-5.2a1,1,0,0,1,1.732,1l-1,1.732a1,1,0,1,1-1.732-1Z" transform="translate(-76 -206)"/>
</svg>
