<svg xmlns="http://www.w3.org/2000/svg" width="38.562" height="39.844" viewBox="0 0 38.562 39.844">
  <defs>
    <style>
      .cls-1 {
        fill: #FAFAFA;
        fill-rule: evenodd;
      }
    </style>
  </defs>
  <path id="Snowstorm_Icon" data-name="Snowstorm Icon" class="cls-1" d="M358.591,593.811a0.909,0.909,0,0,1-1.121.567l-0.881-.307-0.857-.327s0.049,0.468.1,0.937c0.023,0.461.045,0.922,0.045,0.922a0.943,0.943,0,0,1-.859.918,0.754,0.754,0,0,1-.846-0.768s-0.007-.469-0.015-0.937-0.043-.921-0.043-0.921l-0.761.5a4.091,4.091,0,0,1-.54.315l-0.251.131a0.786,0.786,0,0,1-1.073-.353,0.8,0.8,0,0,1,.3-1.066l0.233-.121a3.686,3.686,0,0,0,.5-0.291l0.7-.463-0.775-.441-0.747-.456a0.943,0.943,0,0,1-.374-1.078,0.587,0.587,0,0,1,.907-0.241L353,590.764l0.768,0.384,0.017-.021s-0.087-.432-0.173-0.863-0.2-.843-0.2-0.843a0.6,0.6,0,0,1,.488-0.8,0.9,0.9,0,0,1,.918.64l0.248,0.852c0.115,0.426.2,0.846,0.2,0.846s0.017,0.015.028,0.019c0.034,0.039,1.2-1.151,1.2-1.151a0.822,0.822,0,0,1,1.12.022,0.766,0.766,0,0,1,.026,1.116s-1.279,1.3-1.315,1.257c0,0,.439.163,0.876,0.3l0.873,0.249A0.786,0.786,0,0,1,358.591,593.811Zm-7.01-20.526a0.387,0.387,0,0,1,.16.511,0.328,0.328,0,0,1-.468.144l-0.338-.2-0.35-.186c0.022,0,.013.788,0.013,0.788a0.325,0.325,0,0,1-.344.329,0.356,0.356,0,0,1-.342-0.343s0.01-.743-0.013-0.742l-0.324.194-0.337.183a0.37,0.37,0,0,1-.47-0.1,0.28,0.28,0,0,1,.1-0.408l0.316-.192,0.314-.2,0-.011-0.345-.139-0.344-.128a0.28,0.28,0,0,1-.2-0.376,0.371,0.371,0,0,1,.441-0.191l0.358,0.113,0.359,0.125,0.012,0-0.137-.721a0.347,0.347,0,0,1,.255-0.4,0.336,0.336,0,0,1,.415.254l0.148,0.776,0.3-.248,0.293-.26a0.328,0.328,0,0,1,.487.053,0.391,0.391,0,0,1-.03.528l-0.314.251-0.315.24,0.355,0.174ZM349,579.524a0.311,0.311,0,0,1,.133.419l-0.163.31a3.379,3.379,0,0,1-.187.3l0.356,0.016,0.355,0a0.305,0.305,0,0,1,.3.327,0.345,0.345,0,0,1-.345.318l-0.709-.038,0.292,0.667a0.336,0.336,0,0,1-.2.425,0.3,0.3,0,0,1-.4-0.177l-0.254-.66-0.442.542a0.291,0.291,0,0,1-.426.026,0.329,0.329,0,0,1-.045-0.438l0.419-.514-0.682-.134a0.341,0.341,0,0,1-.268-0.346,0.25,0.25,0,0,1,.321-0.212l0.657,0.1,0-.009-0.327-.6a0.243,0.243,0,0,1,.105-0.365,0.335,0.335,0,0,1,.413.135l0.177,0.29,0.165,0.294,0.011,0a2.75,2.75,0,0,0,.174-0.276l0.152-.29A0.3,0.3,0,0,1,349,579.524Zm-1.378-14.35-0.42.105-0.41.116,0.616,0.63a0.363,0.363,0,0,1-.02.534,0.4,0.4,0,0,1-.532-0.011l-0.576-.589s-0.057.209-.113,0.419l-0.124.409a0.41,0.41,0,0,1-.445.288,0.323,0.323,0,0,1-.23-0.409l0.1-.4,0.086-.407-0.011-.007-0.381.16-0.372.167a0.314,0.314,0,0,1-.438-0.171,0.411,0.411,0,0,1,.2-0.494l0.375-.191,0.373-.17,0.006-.014c0.015-.021-0.664-0.469-0.664-0.469a0.392,0.392,0,0,1-.1-0.527,0.365,0.365,0,0,1,.52-0.11s0.727,0.483.712,0.5c0,0,.025-0.22.051-0.439l0.03-.433a0.37,0.37,0,0,1,.428-0.339,0.426,0.426,0,0,1,.361.466l-0.054.443c-0.03.218-.061,0.436-0.061,0.436l0.414-.141,0.423-.133a0.416,0.416,0,0,1,.514.293A0.362,0.362,0,0,1,347.622,565.174Zm-3.978,30c-0.155.364-.309,0.729-0.309,0.729a0.19,0.19,0,0,0,.01.028l1.5-.134a0.727,0.727,0,0,1,.209,1.437l-1.627.146,0.47,0.674c0.249,0.335.5,0.671,0.5,0.671a0.687,0.687,0,0,1-.185,1.013,0.82,0.82,0,0,1-1.1-.177s-0.236-.356-0.471-0.713-0.447-.715-0.447-0.715-0.212.355-.425,0.709-0.45.708-.45,0.708a0.782,0.782,0,0,1-1.1.2,0.7,0.7,0,0,1-.214-1.017l0.476-.666c0.226-.334.45-0.668,0.45-0.668l-1.63-.169a0.7,0.7,0,0,1-.607-0.818,0.727,0.727,0,0,1,.775-0.619l1.522,0.159s-0.169-.375-0.337-0.75l-0.312-.748a0.8,0.8,0,0,1,.3-0.964,0.584,0.584,0,0,1,.806.318l0.334,0.7,0.361,0.7,0.024-.005,0.338-.695c0.156-.348.313-0.7,0.313-0.7a0.554,0.554,0,0,1,.8-0.337,0.825,0.825,0,0,1,.325.968Zm-0.383-10.268-0.606.174,0.451,0.447a0.27,0.27,0,0,1,0,.4,0.3,0.3,0,0,1-.425,0l-0.442-.478-0.23.6a0.293,0.293,0,0,1-.395.151,0.272,0.272,0,0,1-.153-0.371l0.252-.578-0.629.057a0.269,0.269,0,0,1-.291-0.261,0.288,0.288,0,0,1,.247-0.3l0.593-.053-0.356-.523a0.307,0.307,0,0,1,.043-0.389,0.23,0.23,0,0,1,.336.065l0.365,0.484,0.009,0,0.156-.581a0.227,0.227,0,0,1,.289-0.176,0.309,0.309,0,0,1,.186.346s-0.133.6-.132,0.6l0,0.009,0.562-.163a0.291,0.291,0,0,1,.343.193A0.264,0.264,0,0,1,343.261,584.909Zm-3.609-22.292s-0.892-.179-0.895-0.154l0.17,0.439c0.077,0.227.153,0.454,0.153,0.454a0.452,0.452,0,0,1-.214.551,0.331,0.331,0,0,1-.472-0.208l-0.168-.432c-0.091-.217-0.181-0.435-0.181-0.435l-0.014,0s-0.118.194-.235,0.389l-0.222.4a0.332,0.332,0,0,1-.494.155,0.479,0.479,0,0,1-.143-0.586l0.209-.411,0.221-.41,0-.018-0.894,0a0.429,0.429,0,0,1-.043-0.856l0.963,0.006-0.241-.422-0.255-.422a0.405,0.405,0,0,1,.161-0.584,0.482,0.482,0,0,1,.63.163s0.124,0.207.241,0.434,0.225,0.445.225,0.445l0.281-.393c0.148-.2.294-0.392,0.294-0.392a0.485,0.485,0,0,1,.65-0.086,0.421,0.421,0,0,1,.079.611s-0.152.186-.305,0.371-0.294.391-.294,0.391c0-.025.95,0.164,0.951,0.164A0.427,0.427,0,0,1,339.652,562.617Zm-3.974,20.516,0.458-.273a0.2,0.2,0,0,1,.306.06,0.275,0.275,0,0,1-.089.341l-0.459.3v0.009l0.469,0.253a0.266,0.266,0,0,1,.107.339,0.229,0.229,0,0,1-.325.112l-0.5-.272,0.023,0.572a0.238,0.238,0,0,1-.248.256,0.282,0.282,0,0,1-.282-0.258l0-.588-0.515.244a0.287,0.287,0,0,1-.361-0.135,0.239,0.239,0,0,1,.123-0.334l0.526-.233-0.235-.164-0.221-.183a0.253,0.253,0,0,1-.034-0.355,0.245,0.245,0,0,1,.343-0.038,4.022,4.022,0,0,0,.431.329l0.07-.549a0.27,0.27,0,0,1,.267-0.229,0.2,0.2,0,0,1,.194.241l-0.053.548Zm-1.913-10.312-0.431-.066,0,0.006,0.213,0.394a0.16,0.16,0,0,1-.069.24,0.229,0.229,0,0,1-.274-0.092l-0.22-.384-0.008,0a3.106,3.106,0,0,0-.216.37,0.2,0.2,0,0,1-.268.073,0.2,0.2,0,0,1-.086-0.275,3.333,3.333,0,0,1,.232-0.4l-0.469-.016a0.2,0.2,0,0,1-.195-0.215,0.225,0.225,0,0,1,.227-0.207l0.463,0.025-0.189-.437a0.221,0.221,0,0,1,.128-0.277,0.2,0.2,0,0,1,.268.116l0.164,0.435,0.29-.355a0.188,0.188,0,0,1,.278-0.017,0.214,0.214,0,0,1,.029.287l-0.275.337,0.447,0.089a0.228,0.228,0,0,1,.176.229A0.164,0.164,0,0,1,333.765,572.821Zm-1.108,4.842a0.186,0.186,0,0,1-.051.273l-0.386.29,0,0.007,0.468,0.138a0.191,0.191,0,0,1,.142.239,0.239,0.239,0,0,1-.276.146l-0.486-.118-0.007,0L332.2,579.1a0.228,0.228,0,0,1-.152.276,0.214,0.214,0,0,1-.276-0.147l-0.143-.5-0.358.363a0.214,0.214,0,0,1-.321-0.01,0.244,0.244,0,0,1,0-.348l0.38-.354-0.485-.2a0.248,0.248,0,0,1-.123-0.326,0.213,0.213,0,0,1,.3-0.119l0.465,0.216-0.048-.515a0.209,0.209,0,0,1,.207-0.233,0.239,0.239,0,0,1,.241.207l0.045,0.485,0.419-.282A0.245,0.245,0,0,1,332.657,577.663Zm-1.79-12.744a0.526,0.526,0,0,1,.193.635,0.361,0.361,0,0,1-.544.139s-0.219-.133-0.438-0.264l-0.452-.256-0.012.012s0.034,0.252.069,0.5,0.091,0.507.091,0.507a0.362,0.362,0,0,1-.309.477,0.537,0.537,0,0,1-.528-0.411s-0.055-.251-0.109-0.5-0.1-.513-0.1-0.513l-0.015-.012-0.762.625a0.447,0.447,0,0,1-.64-0.032,0.485,0.485,0,0,1,0-.678s0.2-.174.412-0.343l0.414-.336-0.5-.2-0.514-.187a0.454,0.454,0,0,1-.267-0.623,0.537,0.537,0,0,1,.658-0.307s0.248,0.089.507,0.206l0.5,0.229s-0.015-.271-0.029-0.542-0.013-.552-0.013-0.552a0.533,0.533,0,0,1,.51-0.527,0.463,0.463,0,0,1,.487.481s-0.007.268-.015,0.536,0.013,0.551.013,0.551c-0.016-.027.936-0.517,0.936-0.517a0.451,0.451,0,0,1,.621.215,0.485,0.485,0,0,1-.187.634s-0.891.456-.875,0.483l0.445,0.269Zm-3.656,28.146,0.7-.241,0.683-.255-1.139-.953a0.656,0.656,0,0,1-.018-0.928,0.624,0.624,0,0,1,.88-0.032l1.072,0.9s0.065-.358.131-0.716l0.148-.7a0.708,0.708,0,0,1,.721-0.549,0.524,0.524,0,0,1,.433.674s-0.074.358-.124,0.7-0.091.691-.091,0.691l0.02,0.008,0.622-.331,0.6-.343a0.5,0.5,0,0,1,.748.224,0.713,0.713,0,0,1-.269.868s-0.3.2-.592,0.366l-0.6.342-0.007.026a5.788,5.788,0,0,0,.576.372l0.6,0.326a0.661,0.661,0,0,1,.253.871,0.62,0.62,0,0,1-.86.271l-0.651-.352c-0.322-.183-0.622-0.4-0.622-0.4s-0.009.376-.02,0.752,0.007,0.751.007,0.751a0.613,0.613,0,0,1-.669.632,0.772,0.772,0,0,1-.686-0.747s0.011-.376.021-0.753,0.039-.741.039-0.741l-0.688.3c-0.349.147-.69,0.264-0.69,0.264a0.743,0.743,0,0,1-.9-0.44A0.614,0.614,0,0,1,327.211,593.065Zm-2.107-8.878-0.627-.067-0.635-.086c0,0.006-.014.007-0.019,0.013l0.457,1.148a0.565,0.565,0,0,1-.27.749,0.587,0.587,0,0,1-.787-0.274l-0.5-1.247-0.408.516-0.4.535a0.547,0.547,0,0,1-.825.072,0.685,0.685,0,0,1-.127-0.9l0.438-.525,0.446-.5-0.646-.181-0.652-.2a0.66,0.66,0,0,1-.414-0.818,0.549,0.549,0,0,1,.734-0.386l0.624,0.23,0.624,0.209-0.255-1.317a0.544,0.544,0,0,1,.482-0.653,0.615,0.615,0,0,1,.665.474l0.238,1.231,0.5-.425c0.251-.2.5-0.406,0.5-0.406a0.638,0.638,0,0,1,.812.022,0.476,0.476,0,0,1-.051.7l-0.463.414-0.457.435,0.01,0.018,0.615,0.116,0.607,0.1a0.463,0.463,0,0,1,.451.55A0.643,0.643,0,0,1,325.1,584.187Zm0.072-11.237s-0.294.022-.565,0.062l-0.554.085a0.1,0.1,0,0,1,0,.018l0.407,0.412,0.412,0.4a0.407,0.407,0,0,1,.011.637,0.561,0.561,0,0,1-.729-0.014s-0.23-.19-0.43-0.382l-0.411-.395H323.3a3.4,3.4,0,0,0-.14.535c-0.053.272-.1,0.545-0.1,0.545a0.525,0.525,0,0,1-1.026-.22s0.056-.294.113-0.587a4.144,4.144,0,0,1,.152-0.578l-0.582.154c-0.3.079-.571,0.174-0.571,0.174a0.517,0.517,0,0,1-.655-0.383,0.605,0.605,0,0,1,.405-0.7l0.584-.153,0.578-.137-0.4-.469c-0.2-.24-0.375-0.479-0.375-0.479a0.6,0.6,0,0,1,.113-0.8,0.5,0.5,0,0,1,.739.1s0.18,0.245.359,0.491l0.366,0.476,0.447-1.107a0.528,0.528,0,0,1,.951.456l-0.421,1.042,0.582-.06,0.575-.044a0.59,0.59,0,0,1,.6.439A0.412,0.412,0,0,1,325.176,572.95Z" transform="translate(-320.094 -560.031)"/>
</svg>
