<svg xmlns="http://www.w3.org/2000/svg" width="49" height="36" viewBox="0 0 49 36">
  <defs>
    <style>
      .cls-1 {
        fill: #FAFAFA;
        fill-rule: evenodd;
      }
    </style>
  </defs>
  <path id="Thunderstorm_Icon" data-name="Thunderstorm Icon" class="cls-1" d="M471.04,354.987l-1.986,0c-0.019,0-.035.011-0.054,0.011a1,1,0,0,1,0-2v-0.011h2a12.5,12.5,0,1,0-12.5-15.979,1,1,0,0,1-1.355.64,7.936,7.936,0,0,0-3.157-.649,8.038,8.038,0,0,0-7.676,5.76,1,1,0,0,1-1.353.641A4.938,4.938,0,0,0,443,343a5,5,0,1,0,0,10h2a1,1,0,0,1,0,2h-2a7,7,0,1,1,1.734-13.782A10.057,10.057,0,0,1,453.988,335a9.917,9.917,0,0,1,2.928.437A14.5,14.5,0,1,1,471.04,354.987Zm-17.963-.751,4.993-8a0.5,0.5,0,0,1,.87.488L456,353s3.035,0,2.465,0a0.5,0.5,0,0,1,.253.064,0.512,0.512,0,0,1,.2.694c-0.556.892-4.993,8-4.993,8a0.5,0.5,0,0,1-.87-0.489L456,355s-3.15-.006-2.465-0.006a0.493,0.493,0,0,1-.253-0.063A0.513,0.513,0,0,1,453.077,354.236Z" transform="translate(-436 -326)"/>
</svg>
